<?xml version="1.0" encoding="UTF-8"?>
<svg xmlns="http://www.w3.org/2000/svg" xmlns:xlink="http://www.w3.org/1999/xlink" width="1777.85pt" height="645.09pt" viewBox="0 0 1777.85 645.09" version="1.1">
<defs>
<clipPath id="clip1">
  <path d="M 1210 151 L 1777.851563 151 L 1777.851563 645.089844 L 1210 645.089844 Z M 1210 151 "/>
</clipPath>
</defs>
<g id="surface1">
<path style=" stroke:none;fill-rule:nonzero;fill:rgb(13.725281%,12.156677%,12.548828%);fill-opacity:1;" d="M 422.074219 325.292969 L 351.632813 325.351563 C 357.800781 314.714844 369.199219 306.964844 380.808594 302.503906 C 381.992188 302.046875 385.617188 300.921875 386.800781 300.496094 C 406.867188 293.269531 431.78125 303.933594 438.929688 320.65625 C 440.253906 323.746094 427.804688 325.269531 422.074219 325.292969 Z M 370.9375 262.824219 C 369.28125 263.234375 364.355469 263.914063 362.777344 264.394531 C 337.796875 271.992188 318.113281 286.859375 302.925781 304.628906 C 270.753906 342.277344 276.582031 428.082031 315.855469 453.644531 C 347.351563 474.144531 402.769531 481.757813 452.824219 475.136719 C 470.511719 472.796875 480.121094 461.054688 480.53125 443.996094 C 480.703125 436.726563 471.367188 433.644531 465.789063 434.183594 C 439.367188 436.730469 410.898438 436.738281 388.652344 430.703125 C 366.019531 424.5625 350.097656 405.738281 351.097656 378.039063 C 351.25 373.785156 355.199219 369.660156 359.449219 369.609375 L 472.703125 369.222656 C 483.492188 368.933594 492.566406 360.71875 494.03125 350.574219 C 496.214844 335.449219 493.6875 321.21875 489.570313 309.421875 C 475.75 269.8125 424.757813 249.570313 370.9375 262.824219 "/>
<path style=" stroke:none;fill-rule:nonzero;fill:rgb(13.725281%,12.156677%,12.548828%);fill-opacity:1;" d="M 240.871094 438.871094 C 178.597656 443.425781 137.488281 417.179688 112.351563 381.050781 C 74.941406 327.28125 91.03125 224.097656 142.886719 198.386719 C 180.46875 170.078125 257.011719 174.101563 298.863281 195.101563 C 305.660156 198.511719 314.953125 193.730469 319.597656 187.242188 C 326.898438 177.035156 321.191406 163.699219 312.730469 158.503906 C 282.421875 139.894531 231.566406 133.746094 184.902344 139.640625 C 183.292969 139.84375 178.488281 140.363281 176.871094 140.578125 C 110.488281 149.324219 60.890625 174.960938 27.296875 216.828125 C -22.21875 278.539063 -0.425781 405.003906 60.957031 436.300781 C 103.714844 466.683594 163.085938 481.882813 236.785156 478.765625 C 245.585938 478.390625 254.175781 473.613281 258.429688 464.984375 C 259.207031 463.410156 258.78125 454.820313 258.570313 452.078125 C 257.875 443.046875 248.207031 438.332031 240.871094 438.871094 "/>
<path style=" stroke:none;fill-rule:nonzero;fill:rgb(13.725281%,12.156677%,12.548828%);fill-opacity:1;" d="M 1522.21875 266.472656 C 1487.511719 273.230469 1460.039063 289.964844 1442.410156 314.773438 C 1412.78125 356.472656 1428.761719 433.28125 1468.101563 452.539063 C 1495.058594 473.402344 1537.261719 480.738281 1586.160156 477.402344 C 1594.78125 476.8125 1602.078125 470.394531 1603.808594 462.613281 C 1605.621094 454.605469 1599.539063 441.445313 1587.351563 444.355469 C 1574.941406 447.316406 1552.46875 446.109375 1538 440.925781 C 1502.480469 428.199219 1480.640625 381.003906 1497.96875 335.660156 C 1508.621094 307.8125 1535.351563 291.902344 1576.761719 295.796875 C 1589.410156 296.984375 1600.621094 302.285156 1612.261719 304.914063 C 1618.039063 306.21875 1625.300781 305.914063 1628.179688 301.644531 C 1635.019531 291.460938 1631.789063 279.40625 1623.960938 274.695313 C 1608.480469 265.402344 1588.261719 261.8125 1565.179688 261.519531 L 1522.21875 266.472656 "/>
<g clip-path="url(#clip1)" clip-rule="nonzero">
<path style=" stroke:none;fill-rule:nonzero;fill:rgb(93.331909%,19.215393%,14.117432%);fill-opacity:1;" d="M 1713.539063 154.40625 C 1712.578125 153.457031 1705.660156 148.070313 1708.230469 155.285156 C 1708.941406 157.269531 1710.351563 163.433594 1711.28125 165.265625 C 1775.519531 290.222656 1719.199219 461.550781 1630.410156 520.679688 C 1532.121094 624.84375 1283.71875 599.847656 1214.351563 487.90625 C 1212.351563 484.664063 1209.011719 489.671875 1210.558594 492.472656 C 1218.980469 507.730469 1229.328125 521.84375 1237.78125 536.335938 C 1306.71875 654.417969 1563.96875 687.296875 1669.828125 580.003906 C 1787.058594 513.652344 1819.679688 259.5625 1713.539063 154.40625 "/>
</g>
<path style=" stroke:none;fill-rule:nonzero;fill:rgb(13.725281%,12.156677%,12.548828%);fill-opacity:1;" d="M 1282.328125 302.402344 C 1283.480469 301.878906 1287.179688 300.964844 1288.371094 300.539063 C 1308.21875 293.464844 1333.558594 302.734375 1341.078125 319.117188 C 1343.371094 324.113281 1331.910156 325.257813 1326.96875 325.28125 L 1254.261719 325.351563 C 1261.308594 316.039063 1271.039063 307.554688 1282.328125 302.402344 Z M 1221.328125 455.949219 C 1255.410156 475.71875 1317.621094 483.894531 1366.078125 471.640625 C 1376.980469 468.878906 1384.71875 455.34375 1381.578125 440.882813 C 1380.480469 435.867188 1374.058594 433.433594 1369.320313 433.953125 C 1341.46875 437 1314.078125 436.71875 1290.300781 430.382813 C 1270.101563 425.007813 1257.121094 408.671875 1253.308594 387.363281 C 1252.199219 381.21875 1252.800781 369.351563 1259.980469 369.351563 L 1374.230469 369.140625 C 1379 369.09375 1384.511719 367.558594 1388.371094 364.371094 C 1399.519531 355.195313 1399.320313 335.511719 1395.46875 319.328125 C 1384.480469 273.347656 1334.269531 249.804688 1276.539063 261.972656 C 1275.640625 262.160156 1273.179688 262.394531 1272.371094 262.570313 C 1241.679688 269.273438 1219.511719 287.652344 1202.890625 309.003906 C 1172.300781 348.296875 1182.101563 433.1875 1221.328125 455.949219 "/>
<path style=" stroke:none;fill-rule:nonzero;fill:rgb(13.725281%,12.156677%,12.548828%);fill-opacity:1;" d="M 939.808594 325.292969 L 868.300781 325.351563 C 875.808594 315.703125 886.511719 306.949219 898.429688 302.199219 C 899.609375 301.726563 903.359375 300.921875 904.539063 300.496094 C 924.609375 293.269531 949.519531 303.933594 956.671875 320.65625 C 957.988281 323.746094 945.550781 325.269531 939.808594 325.292969 Z M 888.441406 262.011719 C 864.285156 266.777344 846.484375 279.582031 830.4375 292.113281 C 793.453125 320.988281 786.402344 411.648438 823.804688 445.09375 C 851.386719 469.753906 894.101563 480.019531 947.089844 476.652344 C 962.28125 475.691406 977.929688 473.503906 985.359375 469.558594 C 995.152344 464.355469 1001.621094 453.945313 997.488281 442.988281 C 995.738281 438.320313 990.808594 432.957031 985.132813 433.921875 C 968.21875 436.804688 950.191406 436.425781 932.46875 435.324219 C 897.269531 433.140625 871.003906 417.636719 867.339844 384.257813 C 866.765625 379.019531 867.875 369.351563 874.171875 369.351563 L 990.449219 369.222656 C 1001.230469 368.9375 1010.308594 360.71875 1011.769531 350.574219 C 1013.96875 335.449219 1011.46875 321.210938 1007.28125 309.433594 C 993.101563 269.425781 943.761719 251.09375 888.441406 262.011719 "/>
<path style=" stroke:none;fill-rule:nonzero;fill:rgb(13.725281%,12.156677%,12.548828%);fill-opacity:1;" d="M 686.398438 411.382813 C 679.699219 426.128906 666.558594 435.792969 645.660156 434.597656 C 606.292969 432.34375 579.304688 411.339844 575.71875 373.929688 C 572.546875 340.832031 595.632813 321.089844 618.632813 310.335938 C 619.441406 309.960938 621.773438 308.542969 622.613281 308.28125 C 641.589844 302.398438 667.921875 304.050781 680.636719 314.402344 C 686.601563 319.265625 688.113281 326 688.125 332.683594 C 688.171875 358.742188 689.746094 386.917969 686.398438 411.382813 Z M 730.546875 274.511719 C 700.007813 263.074219 648.21875 262.890625 610.675781 268.53125 C 603.78125 269.566406 597.351563 272.535156 590.691406 274.40625 C 541.578125 288.214844 512.820313 351.992188 533.28125 413.453125 C 550.59375 465.441406 621.421875 488.777344 688.417969 469.179688 C 688.3125 490.910156 689.898438 514.355469 687.019531 532.933594 C 673.210938 553.945313 641.445313 565.644531 611.429688 556.945313 C 583.453125 548.835938 563.546875 525.972656 563.867188 491.351563 C 551.386719 486.050781 540.347656 486.953125 531.339844 490.777344 C 522.679688 494.453125 526.625 507.195313 527.921875 515.3125 C 537.226563 573.613281 583.332031 606.890625 653.773438 598.199219 C 708.851563 591.402344 747.660156 565.847656 754.558594 510.683594 L 754.535156 298.808594 C 750.144531 284.914063 740.679688 278.308594 730.546875 274.511719 "/>
<path style=" stroke:none;fill-rule:nonzero;fill:rgb(13.725281%,12.156677%,12.548828%);fill-opacity:1;" d="M 1109.699219 127.519531 L 1063.761719 127.351563 C 1062.28125 127.351563 1056.800781 133.222656 1056.808594 134.675781 C 1057.078125 247.539063 1055.828125 362.507813 1056.890625 475.011719 C 1085.28125 480.367188 1108.828125 469.367188 1119.410156 448.519531 C 1121.230469 349.375 1120.621094 240.53125 1119.679688 138.050781 C 1119.640625 132.613281 1115.140625 127.617188 1109.699219 127.519531 "/>
<path style=" stroke:none;fill-rule:nonzero;fill:rgb(93.331909%,19.215393%,14.117432%);fill-opacity:1;" d="M 1209.058594 185.183594 C 1265.828125 64.261719 1470.660156 -14.335938 1622.300781 69.589844 C 1625.460938 71.335938 1623.230469 62.765625 1620.660156 60.746094 C 1568.699219 19.96875 1492.769531 -8.824219 1400.269531 2.476563 C 1386.019531 4.21875 1372.679688 6.433594 1360.261719 10.296875 C 1224.679688 52.507813 1126.71875 165.371094 1154.019531 351.253906 C 1155.410156 360.71875 1157.601563 373.109375 1166.558594 382.980469 C 1157.871094 298.867188 1180.199219 234.273438 1209.058594 185.183594 "/>
</g>
</svg>
